<svg xmlns="http://www.w3.org/2000/svg" width="217" height="271" fill="none"><path stroke="#F35348" stroke-linecap="round" stroke-width="13.25" d="M189.75 74.792h6.771c7.479 0 13.542-6.063 13.542-13.542v-6.77c0-7.48-6.063-13.542-13.542-13.542h-40.625m33.854 33.854v162.5c0 14.958-12.125 27.083-27.083 27.083H54.333c-14.957 0-27.083-12.125-27.083-27.083v-162.5m162.5 0H27.25m128.646-33.855v-6.77c0-14.958-12.125-27.084-27.083-27.084H88.188c-14.958 0-27.084 12.126-27.084 27.084v6.77m94.792 0H61.104M27.25 74.792h-6.77c-7.48 0-13.543-6.063-13.543-13.542v-6.77C6.938 47 13 40.937 20.48 40.937h40.625m20.313 81.25v94.791m54.166-94.791v94.791"/></svg>